<svg xmlns="http://www.w3.org/2000/svg" width="361.24mm" height="98.34mm" viewBox="0 0 1024 278.76"><defs><style>.a{fill:#cc272d;}.b{fill:#fff;}.c{fill:#11994b;}.d{fill-rule:evenodd;isolation:isolate;opacity:0.25;}</style></defs><rect class="a" y="0.02" width="1024.12" height="278.75"/><rect class="b" x="51.19" y="0.02" width="921.75" height="278.75"/><rect class="c" x="102.32" y="0.02" width="819.49" height="278.75"/><rect class="a" x="628.48" y="0.01" width="97.08" height="278.75"/><rect class="a" x="298.69" y="0.01" width="97.07" height="278.75"/><rect class="a" x="463.59" y="0.01" width="97.07" height="278.75"/><path class="d" d="M.06,62.29h1024v8.87H.06Z"/><path class="d" d="M.06,41.53h1024V50.4H.06Z"/><path class="d" d="M.06,20.77h1024v8.87H.06Z"/><path class="d" d="M.06,0h1024V8.88H.06Z"/><path class="d" d="M.06,269.9h1024v8.87H.06Z"/><path class="d" d="M.06,249.14h1024V258H.06Z"/><path class="d" d="M.06,228.38h1024v8.87H.06Z"/><path class="d" d="M.06,207.62h1024v8.87H.06Z"/><path class="d" d="M.06,186.86h1024v8.87H.06Z"/><path class="d" d="M.06,166.09h1024V175H.06Z"/><path class="d" d="M.06,145.33h1024v8.87H.06Z"/><path class="d" d="M.06,124.57h1024v8.87H.06Z"/><path class="d" d="M.06,103.81h1024v8.87H.06Z"/><path class="d" d="M.06,83.05h1024v8.87H.06Z"/></svg>