<svg xmlns="http://www.w3.org/2000/svg" width="361.24mm" height="98.34mm" viewBox="0 0 1024 278.76"><defs><style>.a{fill:#cc272d;}.b{fill:#fff;}.c{fill:#1f569e;}.d{fill-rule:evenodd;isolation:isolate;opacity:0.25;}</style></defs><rect class="a" y="0.1" width="1024.12" height="278.56"/><rect class="b" x="51.25" y="0.1" width="921.62" height="278.56"/><rect class="c" x="132.51" y="0.1" width="759.11" height="278.56"/><rect class="a" x="331.81" y="0.1" width="128.31" height="278.56"/><rect class="a" x="563.88" y="0.1" width="128.31" height="278.56"/><path class="d" d="M0,62.38H1024v8.87H0Z"/><path class="d" d="M0,41.62H1024v8.87H0Z"/><path class="d" d="M0,20.86H1024v8.87H0Z"/><path class="d" d="M0,.1H1024V9H0Z"/><path class="d" d="M0,270H1024v8.87H0Z"/><path class="d" d="M0,249.23H1024v8.87H0Z"/><path class="d" d="M0,228.47H1024v8.87H0Z"/><path class="d" d="M0,207.71H1024v8.87H0Z"/><path class="d" d="M0,186.94H1024v8.88H0Z"/><path class="d" d="M0,166.18H1024v8.87H0Z"/><path class="d" d="M0,145.42H1024v8.87H0Z"/><path class="d" d="M0,124.66H1024v8.87H0Z"/><path class="d" d="M0,103.9H1024v8.87H0Z"/><path class="d" d="M0,83.14H1024V92H0Z"/></svg>