<svg xmlns="http://www.w3.org/2000/svg" width="361.24mm" height="98.34mm" viewBox="0 0 1024 278.76"><defs><style>.a{fill:#81a898;}.a,.d{fill-rule:evenodd;}.b{fill:#fff;}.c{fill:#668a45;}.d{isolation:isolate;opacity:0.25;}</style></defs><polygon class="a" points="1024 278.76 0 278.76 0 0 1024 0 1024 278.76"/><rect class="b" x="173.65" width="676.7" height="278.76"/><rect class="c" x="219.99" width="584.02" height="278.76"/><path class="d" d="M.33,62.28h1024v8.87H.33Z"/><path class="d" d="M.33,41.52h1024v8.87H.33Z"/><path class="d" d="M.33,20.76h1024v8.87H.33Z"/><path class="d" d="M.33,0h1024V8.87H.33Z"/><path class="d" d="M.33,269.89h1024v8.87H.33Z"/><path class="d" d="M.33,249.13h1024V258H.33Z"/><path class="d" d="M.33,228.37h1024v8.87H.33Z"/><path class="d" d="M.33,207.61h1024v8.87H.33Z"/><path class="d" d="M.33,186.85h1024v8.87H.33Z"/><path class="d" d="M.33,166.09h1024V175H.33Z"/><path class="d" d="M.33,145.32h1024v8.88H.33Z"/><path class="d" d="M.33,124.56h1024v8.87H.33Z"/><path class="d" d="M.33,103.8h1024v8.87H.33Z"/><path class="d" d="M.33,83h1024v8.87H.33Z"/></svg>