<?xml version="1.0" encoding="UTF-8"?><svg id="a" xmlns="http://www.w3.org/2000/svg" width="326.2" height="399.39" viewBox="0 0 326.2 399.39"><path d="M163.92,.51L34.01,19.63,.59,89.33c17.99,22.81,25.37,40.04,25.67,70.53,.3,23.48-9.18,52.99-6.55,82.04,4.21,46.36,27.47,76.62,42.98,94.01,31.16,29.35,64.28,42.3,98.83,62.92,35.6-17.24,71.88-36.5,102.74-63.75,27.77-26.12,46.36-72.63,43.81-115.46-.23-28.15-10.84-45.54-7.98-74.89,2.94-19.64,10.24-38.09,25.52-56.98l-34.25-68.87L163.92,.51Z" fill="#3c2d39" fill-rule="evenodd" stroke="#332c2b" stroke-miterlimit="10"/><path d="M163.85,9.84L40.11,28.06,8.19,87.29c17.16,21.75,24.16,45.39,24.54,74.44,.23,22.35-8.81,50.5-6.32,78.2,4.06,44.18,26.19,73.01,41.02,89.57,29.66,27.92,61.27,40.34,94.16,59.99,33.95-16.48,68.49-34.85,97.92-60.74,26.42-24.91,44.18-69.25,41.77-110.12-.3-26.8-10.39-43.35-7.6-71.35,2.78-18.74,9.71-42.75,24.31-60.74l-32.67-59.24L163.85,9.84Z" fill="#444956" fill-rule="evenodd" stroke="#222833" stroke-miterlimit="10" stroke-width="2"/><g><path d="M48.58,48.08l8-2.36-1.33-4.5c-.34-1.16-.65-2.14-.94-2.95,1.83,.06,3.12,.13,3.88,.18,.75,.06,1.16,.19,1.22,.4,.06,.21-.31,.63-1.12,1.25l1.38,4.7,8.47-2.49,.39-1.89c.06-.28,.17-.45,.33-.49,.22-.07,1,.06,2.32,.38,1.33,.32,2.03,.6,2.1,.85s-.37,.79-1.33,1.62l2.61,8.87c.1,.33,.2,.64,.31,.92l.27,.68c.05,.16-.02,.33-.21,.53-.18,.2-.56,.47-1.13,.82s-1,.57-1.29,.65c-.13,.04-.23-.05-.3-.27l-.52-1.77-8.77,2.58,2.21,7.5c.22,.73,.47,1.5,.75,2.31l.37,1.12c.05,.18,.02,.35-.11,.5-.12,.16-.55,.48-1.29,.98-.74,.49-1.17,.76-1.3,.8s-.25-.12-.36-.47l-.32-1.32c-.24-.9-.52-1.9-.85-3.01l-2.21-7.5-8.67,2.55,.42,1.43c.05,.16,0,.33-.14,.51-.14,.19-.54,.51-1.22,.97-.67,.46-1.09,.72-1.26,.77s-.27-.04-.31-.27c-.11-.79-.3-1.64-.57-2.55l-2.97-10.07c-.27-.93-.59-1.87-.93-2.8,1.78,.15,3.25,.42,4.4,.8,0,0,.02,.04,.02,.04Zm8.29-1.39l-8.67,2.55,2.67,9.07,8.67-2.55s-2.67-9.07-2.67-9.07Zm14.54,5.57l-2.67-9.07-8.77,2.58,2.67,9.07,8.77-2.58Z" fill="#fbd116"/><path d="M107.29,54.87l-19.73,4,.35,1.7c.06,.32,.03,.55-.11,.7s-.53,.41-1.17,.79-1.06,.59-1.26,.63c-.19,.04-.31-.08-.34-.36-.12-1.04-.38-2.56-.78-4.56l-4.51-22.21c-.23-1.14-.46-2.14-.68-3.02,1.41,.07,2.64,.33,3.7,.77l19.01-3.86,.68-1.56c.11-.28,.23-.44,.37-.46,.23-.05,.95,.21,2.18,.78,1.23,.57,1.86,.96,1.91,1.19,.05,.23-.4,.72-1.33,1.48l4.29,21.12c.24,1.18,.41,1.97,.52,2.38l.28,1.19c.04,.18-.04,.35-.22,.5s-.58,.42-1.2,.79c-.62,.37-1.02,.58-1.21,.62-.14,.03-.23-.11-.29-.4l-.45-2.21s-.01,0-.01,0Zm-19.93,2.98l19.73-4-4.76-23.44-19.73,4,4.76,23.44Zm4.27-19.85l-5.04,1.02c-.61,.12-1.08,.29-1.39,.5l-.88-1.2c.5,.02,1.08-.04,1.74-.18l11.65-2.36,.87-1.84c.15-.31,.29-.48,.43-.51,.23-.05,.86,.23,1.89,.82s1.57,1,1.61,1.22-.23,.38-.82,.5l-7.15,1.45,1.02,5.01,2.45-.5,.73-1.82c.13-.31,.27-.48,.43-.51s.77,.26,1.85,.88c1.07,.62,1.63,1.02,1.66,1.21,.04,.18-.18,.32-.66,.42l-6.27,1.27,1.49,7.32,4.16-.84,.98-2.01c.14-.34,.31-.52,.51-.56,.19-.04,.76,.29,1.71,.98,.94,.7,1.44,1.14,1.48,1.33,.04,.19-.17,.34-.62,.43l-16.29,3.31c-.52,.11-.98,.28-1.38,.53l-.89-1.24c.5,.02,1.08-.04,1.74-.18l5.72-1.16-1.49-7.32-4.22,.86c-.36,.07-.71,.23-1.04,.46l-.89-1.24c.5,.02,1.08-.04,1.74-.18l4.22-.86-1.02-5.01h-.03Zm5.24,5.89c2.17,.32,3.53,.6,4.09,.84,.56,.24,.89,.62,.99,1.13,.1,.51,.05,1.02-.17,1.52s-.46,.78-.72,.84c-.26,.05-.49,.02-.68-.11s-.41-.38-.65-.75c-.61-.89-1.67-1.84-3.2-2.83l.33-.64h0Z" fill="#fbd116"/><path d="M128.82,29.28c.2,7.79-.47,13.55-2.03,17.28s-5.23,7.39-11.03,10.97l-.37-.55c4.71-3.7,7.72-7.81,9.05-12.33,1.32-4.52,1.66-11.34,1.01-20.46,1.09,.14,2.1,.32,3.03,.53,.93,.21,1.48,.37,1.64,.45,.16,.09,.25,.2,.26,.34,.02,.14-.17,.3-.56,.5-.39,.19-.65,.4-.79,.63,1.75,6.95,4.13,12.37,7.14,16.26,3.02,3.9,6.8,6.43,11.35,7.59l-.03,.67c-.65,.02-1.27,.07-1.87,.13-.6,.06-1.11,.22-1.52,.48-.42,.25-.89,.71-1.43,1.38-.14,.18-.26,.27-.35,.28-.28,.03-1.56-1-3.86-3.1s-4.18-4.62-5.64-7.58c-1.46-2.96-2.79-7.45-3.99-13.47h-.01Z" fill="#fbd116"/><path d="M172.57,32.33l-6.12-.04c-.02,2.04,.06,3.86,.24,5.46l7.75,.05,1.3-1.87c.23-.37,.48-.55,.73-.55s.93,.48,2.04,1.42c1.11,.95,1.66,1.55,1.66,1.8,0,.28-.32,.41-.94,.41l-12.34-.09c.45,2.44,1.2,4.37,2.26,5.79,1.05,1.42,2.41,2.57,4.08,3.44,1.66,.87,2.64,1.3,2.95,1.31,.3,0,.5-.08,.61-.24s.39-.87,.85-2.11c.46-1.25,.93-2.66,1.4-4.23l.69,.21c-.41,2.43-.62,4.11-.62,5.04s.09,1.66,.28,2.21,.57,1.11,1.12,1.69c.35,.35,.52,.69,.51,1.03,0,.34-.4,.5-1.19,.5s-2.01-.22-3.68-.65-3.4-1.21-5.2-2.35-3.26-2.59-4.37-4.36-1.99-4.2-2.64-7.28l-7.75-.05-.06,9.04,8.71-2.79,.24,.7c-4.05,2.17-6.76,3.67-8.15,4.48-1.38,.81-2.58,1.63-3.58,2.46-.23,.18-.42,.28-.56,.27s-.26-.14-.36-.4c-.1-.27-.56-1.26-1.39-2.98,.79-.44,1.32-.76,1.59-.98,.27-.22,.4-.63,.41-1.23l.15-21.76c0-1.18-.02-2.27-.08-3.27,1.8,.66,3.17,1.26,4.09,1.8l15.19,.1,.88-1.49c.14-.23,.29-.35,.44-.34s.55,.2,1.21,.6,1.23,.77,1.71,1.12,.72,.61,.72,.77c0,.28-.54,.69-1.61,1.24l-.03,4.52c0,.35,0,.67,.03,.97l.06,.73c0,.16-.14,.33-.42,.5s-.73,.38-1.36,.62c-.63,.24-1.03,.36-1.2,.36s-.26-.12-.26-.35v-1.22h0Zm-9.24-.08l-7.09-.05-.04,5.46,7.51,.05c-.13-.95-.26-2.77-.38-5.46Zm-7.08-1.27l16.34,.11,.04-5.6-16.34-.11-.04,5.6Z" fill="#fbd116"/><path d="M193.49,26.81l3.8,.45,.64-.69c.13-.15,.26-.21,.37-.2,.16,.02,.69,.41,1.58,1.18s1.32,1.25,1.3,1.45-.27,.3-.74,.3-.81,.06-1.04,.18c-.22,.11-.68,.44-1.38,.98-.69,.54-1.5,1.25-2.42,2.15l2.69,.32,.73-.82c.11-.13,.23-.18,.35-.17,.13,.02,.58,.32,1.35,.91s1.15,.96,1.13,1.11c-.02,.15-.34,.34-.98,.57l-1.99,16.88c-.12,.99-.29,1.69-.53,2.09s-.75,.79-1.56,1.16c-.8,.37-1.32,.54-1.55,.52-.18-.02-.31-.27-.38-.75s-.18-.86-.34-1.14c-.15-.29-.46-.64-.92-1.07-.02,.14-.05,.24-.11,.3-.05,.06-.25,.17-.58,.32s-.72,.27-1.16,.35-.71,.13-.8,.12c-.09,0-.12-.13-.1-.36l.24-1.41c.13-.94,.27-2.01,.41-3.21l.56-4.73-2.73-.32c-.43,2.45-1.16,4.44-2.19,5.97s-2.65,3.11-4.84,4.71l-.4-.43c2.19-2.33,3.61-4.87,4.26-7.62s1.22-6.15,1.69-10.2c.09-.78,.18-1.59,.25-2.42-1.02,.93-2.33,1.96-3.94,3.11l-.4-.5c3.82-3.89,6.74-8.48,8.77-13.77,2.56,1.24,3.81,2.08,3.76,2.54-.02,.21-.22,.3-.59,.28s-.67,.06-.9,.24-.67,.73-1.31,1.63h0Zm-.81,11.58l-2.55-.3c-.12,1.06-.34,2.45-.63,4.16l2.69,.32,.49-4.18Zm1.41-5.99c1.22-1.84,2.15-3.27,2.78-4.29l-3.94-.46c-1.01,1.44-1.96,2.66-2.85,3.65,.33,.18,.72,.43,1.17,.77l2.83,.33h.01Zm-3.8,4.59l2.52,.3,.46-3.9-2.45-.29c-.13,1.08-.3,2.38-.53,3.89h0Zm3.39,14.58c.7,.2,1.2,.32,1.5,.35,.3,.04,.53,0,.69-.08,.16-.09,.27-.37,.33-.85l.81-6.84-2.49-.29-.53,4.45c-.16,1.31-.26,2.4-.31,3.25h0Zm3.94-12.57l-2.49-.29-.49,4.18,2.49,.29,.49-4.18Zm-2.36-1.4l2.49,.29,.46-3.9-2.49-.29-.46,3.9Zm9.05,3.1l2.66,.31c.21-1.82,.35-3.23,.39-4.22,2.35,.86,3.51,1.39,3.49,1.6,0,.12-.31,.28-.9,.49l-.29,2.45,1.52,.18,1.18-1.37c.24-.25,.43-.37,.58-.35,.15,.02,.63,.47,1.45,1.36,.82,.89,1.21,1.43,1.19,1.61s-.31,.24-.86,.18l-5.18-.61-.5,4.21,2.62,.31,1.24-1.29c.24-.23,.43-.33,.58-.32,.15,.02,.6,.46,1.35,1.33,.75,.87,1.11,1.4,1.09,1.58-.02,.14-.25,.18-.71,.13l-6.28-.74-.52,4.38c-.11,.97-.2,1.81-.26,2.52l-.08,.94c-.03,.23-.16,.41-.4,.55-.24,.13-.69,.3-1.35,.49-.67,.19-1.05,.28-1.15,.27-.1,0-.14-.13-.12-.36l.24-1.41c.13-.94,.27-2.01,.41-3.21l.53-4.49-4.52-.53c-.62-.07-1.11-.05-1.48,.07l-.45-1.49c.47,.17,1.04,.3,1.71,.38l4.87,.57,.5-4.21-3.21-.38c-.67,.9-1.58,1.97-2.72,3.21l-.41-.36c1.51-2.92,2.48-5.48,2.9-7.67,2.04,.69,3.05,1.17,3.02,1.44,0,.12-.16,.22-.44,.32s-.51,.29-.68,.57l-.99,1.56h-.02Zm1.79-12.22l-2.66-.31c-.64-.08-1.15-.05-1.51,.07l-.46-1.45c.47,.17,1.04,.3,1.71,.38l9.98,1.18,.9-1.12c.16-.19,.32-.28,.47-.26s.63,.43,1.45,1.24c.81,.81,1.21,1.32,1.19,1.52s-.46,.38-1.32,.51c-.61,2.17-1.14,3.74-1.59,4.71-.45,.97-1.18,1.61-2.18,1.9s-1.67,.42-1.99,.38c-.23-.03-.34-.23-.31-.6,.05-.6-.06-1.06-.31-1.37-.26-.31-.9-.69-1.95-1.14l.18-.64c1.12,.39,1.95,.62,2.49,.68,.54,.06,.95,0,1.23-.19s.58-.78,.91-1.78,.56-1.96,.69-2.88l-4-.47c-.96,2.59-1.96,4.48-3,5.65s-2.67,2.22-4.91,3.15l-.34-.67c1.48-.9,2.61-1.95,3.38-3.15s1.42-2.98,1.96-5.32v-.02h-.01Z" fill="#fbd116"/><path d="M226.14,35.82l-2.58-.55c-.66-.14-1.15-.17-1.47-.1l-.4-1.65c.45,.21,1.01,.39,1.66,.53l9.93,2.11,1.92-1.69c.2-.17,.38-.24,.54-.2,.16,.03,.43,.33,.81,.88l1.16,1.74c.4,.58,.58,.98,.53,1.18-.04,.2-.3,.26-.78,.15l-8.5-1.81c-.27,1.17-.64,2.6-1.09,4.28l3.57,.76,.95-.94c.24-.23,.43-.34,.56-.31,.14,.03,.48,.33,1.02,.89,.54,.57,.95,1.01,1.21,1.32,.26,.32,.38,.56,.35,.71-.03,.16-.51,.35-1.44,.58-.55,2.13-1.14,4.31-1.78,6.52s-1.07,3.63-1.3,4.26-.63,1.21-1.21,1.75-1.29,.95-2.14,1.21c-.85,.27-1.37,.38-1.55,.35s-.29-.24-.33-.6c-.12-1.09-.4-1.86-.82-2.31-.43-.45-1.07-.89-1.92-1.33l.32-.68c1.19,.54,2.11,.87,2.75,1.01,.65,.14,1.15,.11,1.51-.07s.7-.65,1.02-1.38,.77-2.09,1.33-4.07,1.04-3.92,1.42-5.83l-3.81-.81c-1.14,4.02-2.48,7.08-4.01,9.17-1.54,2.09-3.98,4.12-7.34,6.08l-.33-.64c2.54-1.9,4.54-4.2,6-6.9s2.87-7.24,4.23-13.64v.03h0Zm1.57-8.52c3.03,2.35,4.4,4.21,4.11,5.57-.1,.45-.41,.94-.95,1.45-.54,.51-1.1,.71-1.69,.58-.2-.04-.35-.13-.44-.25s-.14-.4-.14-.83c-.05-2.55-.53-4.53-1.43-5.96,0,0,.54-.56,.54-.56Zm13.88,11.45l5.24,1.11,1.9-1.73c.27-.25,.5-.36,.69-.32s.47,.33,.83,.85l1.31,1.88c.49,.72,.71,1.18,.67,1.37-.04,.19-.31,.24-.81,.13l-5.61-1.19c1.32,.68,2.16,1.14,2.52,1.35,.36,.22,.52,.4,.49,.53-.03,.14-.21,.25-.55,.33s-.57,.19-.69,.32-.31,.47-.58,1.03c-2.01,4.55-4.01,7.87-5.99,9.96,1.22,1.82,3.85,4.14,7.87,6.94l-.28,.65c-.29-.09-.56-.15-.81-.21-1.38-.29-2.57-.08-3.55,.63-.17,.13-.33,.18-.49,.14-.25-.05-.99-.86-2.21-2.41s-2.08-2.83-2.58-3.84c-2.87,2.25-6.73,3.77-11.56,4.54l-.18-.64c4.93-1.7,8.53-3.77,10.77-6.2-.82-2.47-1.05-5.58-.68-9.31-1,1.12-2.08,2.15-3.26,3.11l-.49-.53c1.83-2.46,3.34-4.88,4.53-7.26s2.55-5.66,4.08-9.81c2.13,1.21,3.34,1.91,3.61,2.08,.27,.18,.39,.33,.36,.47s-.32,.26-.86,.38c-.42,.1-.78,.44-1.07,1.03-.29,.59-1.16,2.13-2.62,4.61h0Zm3.15,1.9l-3.81-.81c-.88,1.35-1.72,2.52-2.53,3.51-.02,3.65,.4,6.49,1.24,8.54,1.95-2.71,3.65-6.46,5.1-11.25h0Z" fill="#fbd116"/><path d="M265.22,47.43l-5.09-1.55c-.75-.23-1.33-.33-1.72-.31l-.2-1.48c.43,.25,.97,.48,1.61,.67l6.15,1.88c1.41-1.51,2.65-3.09,3.74-4.75,.97,.78,1.73,1.43,2.26,1.94s.84,.84,.92,.99c.08,.15,.1,.27,.06,.38-.08,.27-.37,.35-.88,.26-.5-.09-.99,.09-1.44,.56l-1.6,1.55,8.98,2.74,2-1.68c.29-.23,.54-.31,.75-.24,.21,.06,.68,.75,1.41,2.06s1.07,2.05,1.02,2.2c-.05,.16-.24,.18-.57,.08l-14.36-4.39c-2.12,2.11-4.07,3.96-5.83,5.53l5.55,1.7,.73-2.39c.29-.95,.54-1.89,.75-2.82,1.63,.86,2.66,1.46,3.11,1.79s.65,.56,.61,.69c-.06,.2-.51,.37-1.35,.5l-.95,3.13,3.26,.99,1.75-1.57c.29-.25,.57-.33,.82-.26s.72,.71,1.38,1.89c.67,1.19,.97,1.89,.9,2.11s-.25,.29-.53,.2l-7.88-2.41-1.41,4.62,7.98,2.44,2.05-1.7c.23-.2,.48-.25,.76-.17s.78,.76,1.51,2.02,1.06,2,1,2.2-.26,.25-.59,.15l-13-3.97-.78,2.56c-.24,.8-.47,1.58-.68,2.34l-.48,1.82c-.07,.22-.21,.37-.43,.45-.22,.08-.66,.12-1.33,.12s-1.17-.05-1.5-.15c-.16-.05-.19-.23-.09-.54l.46-1.28c.29-.88,.61-1.89,.96-3.02l.97-3.19-12.63-3.86c-.6-.18-1.09-.25-1.47-.19l-.18-1.55c.43,.25,.97,.48,1.61,.67l12.97,3.96,1.41-4.62-5.69-1.74-1.34,.94c-.16,.12-.35,.15-.57,.08-.42-.13-1.19-1.07-2.3-2.81,.71-.1,1.32-.26,1.83-.48,.51-.22,1.42-.97,2.72-2.24,1.3-1.28,2.26-2.23,2.89-2.86h0Zm-1.54-8.88l19.42,5.93,1.32-1.12c.26-.23,.51-.32,.75-.24,.23,.07,.67,.73,1.32,1.98s.94,1.98,.88,2.19-.18,.35-.34,.4c-.16,.06-.37,.04-.62-.06-.25-.1-.42-.16-.5-.19-.58-.18-1.17-.2-1.79-.08-.62,.13-1.67,.47-3.15,1.04l-.48-.58,2.39-2.36-19.48-5.95c-.68,2.22-1.42,3.53-2.24,3.95-.82,.42-1.58,.52-2.29,.3-.71-.22-1.2-.52-1.47-.9s-.35-.75-.24-1.11c.11-.35,.54-.67,1.31-.95,1.23-.47,2.1-.92,2.61-1.33,.5-.42,1.27-1.37,2.31-2.87l.7,.21c-.07,.39-.2,.97-.38,1.74h-.03Z" fill="#fbd116"/></g><g><g><path d="M60.59,220.55s-2.76-12.24-2.63-15.7,2.27-9.6,2.13-18.39-3.47-15.06-3.73-18.93,0-9.2,0-9.2c0,0-10.26,17.99-8.53,34.25s12.76,27.96,12.76,27.96h0Z" fill="#fbd116" stroke="#444956" stroke-miterlimit="10" stroke-width=".5"/><path d="M56.36,158.34s-2.73,17.5-1.78,31.11c1.29,18.45,6,31.11,6,31.11" fill="none" stroke="#444956" stroke-miterlimit="10" stroke-width=".5"/></g><g><path d="M60.99,238.13s-2.7-14.74,.78-23.85c3.48-9.11,8.39-9.67,11.87-14.61s4.9-9.14,4.9-9.14c0,0-.29,15.66-2.75,23.24s-12.69,19.65-13.1,24.36-1.7,0-1.7,0Z" fill="#fbd116" stroke="#444956" stroke-miterlimit="10" stroke-width=".5"/><path d="M62.6,236.87s-.98-5.35,2.32-12.22c3.3-6.87,11.8-21.56,13.63-34.12" fill="none" stroke="#444956" stroke-miterlimit="10" stroke-width=".5"/></g><g><path d="M45.45,189.45s-5.95,23.97-1.57,39.72,18,25.76,18,25.76c0,0,.39-5.63-2.06-10.63s-3.07-14.5-5.45-22.88-5.48-14.61-6.75-19.38-2.18-12.59-2.18-12.59h.01Z" fill="#fbd116" stroke="#444956" stroke-miterlimit="10" stroke-width=".5"/><path d="M45.45,189.45s-.95,20.61,2.92,34.02c2.51,8.7,13.51,31.46,13.51,31.46" fill="none" stroke="#444956" stroke-miterlimit="10" stroke-width=".5"/></g><g><path d="M76.33,218.8s-1.1,4.71-2.61,7.62-9.83,11.03-10.33,17.05,3.51,24.67,3.51,24.67c0,0-.8-4.31-.1-7.12s8.22-9.53,9.53-18.05,0-24.17,0-24.17h0Z" fill="#fbd116" stroke="#444956" stroke-miterlimit="10" stroke-width=".5"/><path d="M76.33,218.8s-.69,10.93-4.51,20.76c-2.9,7.45-5.25,12.9-5.92,17.95-.44,3.35,1,10.63,1,10.63" fill="none" stroke="#444956" stroke-miterlimit="10" stroke-width=".5"/></g><g><path d="M44.22,222.8s-7.7,15.8-3.04,28.26c9.22,24.64,27.41,28.63,27.41,28.63,0,0-1.26-6.84-3.48-11.55s-13.09-14.97-16.93-23.15c-5.92-12.61-3.97-22.19-3.97-22.19h.01Z" fill="#fbd116" stroke="#444956" stroke-miterlimit="10" stroke-width=".5"/><path d="M44.22,222.8s-5.37,19.73,5.37,34.8c6.53,9.15,19.01,22.09,19.01,22.09" fill="none" stroke="#444956" stroke-miterlimit="10" stroke-width=".5"/></g><g><path d="M76.9,246.73s4.3,4.53,6.26,12.13c1.96,7.6,2.33,31.12,0,42.4,0,0-9.5-9.97-9.8-21.44s2.25-13.11,2.96-20.1,.58-12.99,.58-12.99h0Z" fill="#fbd116" stroke="#444956" stroke-miterlimit="10" stroke-width=".5"/><path d="M76.9,246.73c1.64,4.45,1.9,11.17,2.15,17.75,.33,8.57-.8,12.76-.66,17.27s1.36,11.34,4.77,19.51" fill="none" stroke="#444956" stroke-miterlimit="10" stroke-width=".5"/></g><g><path d="M46.59,268.94s5.23,8.09,9.44,11.61,9.26,4.42,15.04,9.33,12.37,10.95,12.41,15.76c0,0-6.03-2.67-10.41-3.8s-10.05-.82-15.99-5.68-7.85-6.93-10.49-27.22Z" fill="#fbd116" stroke="#444956" stroke-miterlimit="10" stroke-width=".5"/><path d="M46.59,268.94s2.75,11.61,11.36,18.86c5.65,4.75,22.3,13.76,25.52,17.83" fill="none" stroke="#444956" stroke-miterlimit="10" stroke-width=".5"/></g><g><path d="M121.78,330.98s-6.07-4.4-10.32-12.42-4.01-13.01-9.6-21.76-18.37-17.12-18.37-17.12c0,0,3.72,6.65,4.65,9.04,.86,2.2,2.17,8.88,4.73,15.73,5.59,14.95,11.99,18.23,16.31,20.99s12.6,5.53,12.6,5.53h0Z" fill="#fbd116" stroke="#444956" stroke-miterlimit="10" stroke-width=".5"/><path d="M83.48,279.68s9.07,9.41,13.58,19.93c3.24,7.55,3.76,8.27,7.52,13.96s8.3,12.26,17.2,17.4" fill="none" stroke="#444956" stroke-miterlimit="10" stroke-width=".5"/></g><g><path d="M113.16,330.15s-13-7.6-20.9-11.4-34.6-12.3-34.6-12.3c0,0,15.3,17.3,23.8,21.8s31.7,1.9,31.7,1.9Z" fill="#fbd116" stroke="#444956" stroke-miterlimit="10" stroke-width=".5"/><path d="M57.65,306.45s15.23,11.85,25.83,16.53c9.88,4.37,29.68,7.17,29.68,7.17" fill="none" stroke="#444956" stroke-miterlimit="10" stroke-width=".5"/></g><g><path d="M109.24,303.3s4.56,3.08,7.15,8.14,5.78,17.48,12.2,22.68c6.42,5.2,27.26,8.4,27.26,8.4,0,0-9-3.33-14.18-8.88s-7.32-14.38-12.58-19.73c-7.32-7.46-19.86-10.61-19.86-10.61h.01Z" fill="#fbd116" stroke="#444956" stroke-miterlimit="10" stroke-width=".5"/><path d="M109.24,303.3s10.63,5.31,16.16,16.03c3.77,7.31,7.4,13.2,11.84,17.14s18.62,6.04,18.62,6.04" fill="none" stroke="#444956" stroke-miterlimit="10" stroke-width=".5"/></g><g><path d="M142.12,341.7s-7.55,8.85-19.12,8.73-30.21-9.79-30.21-9.79c0,0,17.35-.35,24.66,0s24.66,1.06,24.66,1.06h0Z" fill="#fbd116" stroke="#444956" stroke-miterlimit="10" stroke-width=".5"/><path d="M92.79,340.64s16.28,4.82,27.14,4.82c15.34,0,22.18-3.76,22.18-3.76" fill="none" stroke="#444956" stroke-miterlimit="10" stroke-width=".5"/></g><g><path d="M62.93,205.02l.28-2.28c.22-.37,3.47-8.71,7.1-11.64l.83,1.73c-2.67,2.15-6.82,9.81-8.21,12.19Z" fill="#fbd116" stroke="#444956" stroke-miterlimit="10" stroke-width=".5"/><circle cx="72.52" cy="190.07" r="3.25" fill="#fbd116" stroke="#444956" stroke-miterlimit="10" stroke-width=".5"/></g><g><path d="M71.07,278.3l-1.45-2.27c-.5-3.43-.23-17.94,2.11-21.87l2.04,1.1c-1,2.83-3.28,12.08-2.7,23.04h0Z" fill="#fbd116" stroke="#444956" stroke-miterlimit="10" stroke-width=".5"/><circle cx="73.14" cy="253.11" r="2.65" fill="#fbd116" stroke="#444956" stroke-miterlimit="10" stroke-width=".5"/></g><g><path d="M97.53,316.29l-3.35-1.09c-2.3-2.59-9.4-14.79-10.27-19.42l2.31-.2c.72,2.92,3.11,9.76,11.32,20.72h0Z" fill="#fbd116" stroke="#444956" stroke-miterlimit="10" stroke-width=".5"/><circle cx="84.78" cy="294.36" r="2.65" fill="#fbd116" stroke="#444956" stroke-miterlimit="10" stroke-width=".5"/></g><g><path d="M62.92,201.44l-.91,1.09c-1.21-2.27-3.66-8.68-4.52-15.38l1.56-.69c.44,3.4,2.57,12.54,3.87,14.98h0Z" fill="#fbd116" stroke="#444956" stroke-miterlimit="10" stroke-width=".5"/><circle cx="57.93" cy="185.61" r="2.65" fill="#fbd116" stroke="#444956" stroke-miterlimit="10" stroke-width=".5"/></g><g><path d="M60.59,231.27l-.24,2.97c-1.21-2.27-6.99-12.58-7.85-19.28l1.56-.69c.44,3.4,5.23,14.56,6.53,16.99h0Z" fill="#fbd116" stroke="#444956" stroke-miterlimit="10" stroke-width=".5"/><circle cx="52.94" cy="213.42" r="2.65" fill="#fbd116" stroke="#444956" stroke-miterlimit="10" stroke-width=".5"/></g><g><path d="M65.16,264.09l-.24,2.97c-1.21-2.27-6.57-11.13-11.55-17.26l1.56-.69c3.74,2.72,8.93,12.54,10.23,14.97h0Z" fill="#fbd116" stroke="#444956" stroke-miterlimit="10" stroke-width=".5"/><circle cx="53.25" cy="248.61" r="2.65" fill="#fbd116" stroke="#444956" stroke-miterlimit="10" stroke-width=".5"/></g><g><path d="M77.03,290.97l-.24,2.97c-3.84-4.82-9.7-8.54-16.68-12.24l.72-2.02c5.58,2.08,13.27,9.39,16.2,11.28h0Z" fill="#fbd116" stroke="#444956" stroke-miterlimit="10" stroke-width=".5"/><circle cx="58.72" cy="279.81" r="2.65" fill="#fbd116" stroke="#444956" stroke-miterlimit="10" stroke-width=".5"/></g><g><path d="M96.37,316.4l-.24,2.97c-3.84-4.82-14.47-7.07-20.41-7.83l.72-2.02c5.99,0,16.99,4.98,19.93,6.87h0Z" fill="#fbd116" stroke="#444956" stroke-miterlimit="10" stroke-width=".5"/><circle cx="74.05" cy="310.16" r="2.65" fill="#fbd116" stroke="#444956" stroke-miterlimit="10" stroke-width=".5"/></g><g><path d="M126.64,334.38l.85,2.86c-5.32-3.1-13.31-2.49-19.12-1.05l-.06-2.14c5.58-2.17,14.91-.38,18.33,.33h0Z" fill="#fbd116" stroke="#444956" stroke-miterlimit="10" stroke-width=".5"/><circle cx="107.14" cy="335.04" r="3.32" fill="#fbd116" stroke="#444956" stroke-miterlimit="10" stroke-width=".5"/></g><g><path d="M125.63,333.77l-5.68-1.37c-2.71-8.04-6.79-12.79-9.11-19.79l2.72-.39c2.83,6.8,7.43,15.94,12.07,21.56h0Z" fill="#fbd116" stroke="#444956" stroke-miterlimit="10" stroke-width=".5"/><circle cx="111.63" cy="310.16" r="3.32" fill="#fbd116" stroke="#444956" stroke-miterlimit="10" stroke-width=".5"/></g><path d="M64.49,196.58c-2.58,14.27-2.51,30.78-1.62,45.25,.5,14.57,4.77,28.66,11.37,41.64,6.65,12.69,14.54,25.42,25.84,34.38,11.54,8.57,24.84,15.34,38.34,20.12,9.33,3.3,18.81,3.76,28.61,5.76,5.04,1.16,9.87,3.2,14.37,5.76,4.48,2.61,8.78,5.77,12.24,10.25l-5.68,3.79c-4-6.83-11.43-11.32-18.77-13.99-5.66-1.91-11.54-2.34-17.65-3.49-14.82-2.46-28.7-9.14-41.51-16.67-6.39-3.86-12.8-8.08-18.05-13.5-8.59-9.08-15.34-19.74-20.88-30.85-6.65-13.34-10.9-28.01-11.38-42.99-.84-14.86-.9-29.74,1.83-44.46l2.94-.99h0Z" fill="#fbd116" stroke="#444956" stroke-miterlimit="10" stroke-width=".5"/><g><path d="M77.86,154.09s-14.77,15.84-16.06,22.76-.8,26.38-.8,26.38c0,0,14.96-22.84,16.73-29.28s.13-19.87,.13-19.87h0Z" fill="#fbd116" stroke="#444956" stroke-miterlimit="10" stroke-width=".5"/><path d="M77.86,154.09s-7.8,17.49-10.1,23.97-6.76,25.17-6.76,25.17" fill="none" stroke="#444956" stroke-miterlimit="10" stroke-width=".5"/></g></g><g><g><path d="M265.6,220.55s2.76-12.24,2.63-15.7-2.27-9.6-2.13-18.39,3.47-15.06,3.73-18.93,0-9.2,0-9.2c0,0,10.26,17.99,8.53,34.25s-12.76,27.96-12.76,27.96h0Z" fill="#fbd116" stroke="#444956" stroke-miterlimit="10" stroke-width=".5"/><path d="M269.83,158.34s2.73,17.5,1.78,31.11c-1.29,18.45-6,31.11-6,31.11" fill="none" stroke="#444956" stroke-miterlimit="10" stroke-width=".5"/></g><g><path d="M265.19,238.13s2.7-14.74-.78-23.85-8.39-9.67-11.87-14.61-4.9-9.14-4.9-9.14c0,0,.29,15.66,2.75,23.24s12.69,19.65,13.1,24.36,1.7,0,1.7,0h0Z" fill="#fbd116" stroke="#444956" stroke-miterlimit="10" stroke-width=".5"/><path d="M263.59,236.87s.98-5.35-2.32-12.22-11.8-21.56-13.63-34.12" fill="none" stroke="#444956" stroke-miterlimit="10" stroke-width=".5"/></g><g><path d="M280.74,189.45s5.95,23.97,1.57,39.72-18,25.76-18,25.76c0,0-.39-5.63,2.06-10.63s3.07-14.5,5.45-22.88,5.48-14.61,6.75-19.38,2.18-12.59,2.18-12.59h-.01Z" fill="#fbd116" stroke="#444956" stroke-miterlimit="10" stroke-width=".5"/><path d="M280.74,189.45s.95,20.61-2.92,34.02c-2.51,8.7-13.51,31.46-13.51,31.46" fill="none" stroke="#444956" stroke-miterlimit="10" stroke-width=".5"/></g><g><path d="M249.86,218.8s1.1,4.71,2.61,7.62,9.83,11.03,10.33,17.05-3.51,24.67-3.51,24.67c0,0,.8-4.31,.1-7.12s-8.22-9.53-9.53-18.05,0-24.17,0-24.17h0Z" fill="#fbd116" stroke="#444956" stroke-miterlimit="10" stroke-width=".5"/><path d="M249.86,218.8s.69,10.93,4.51,20.76c2.9,7.45,5.25,12.9,5.92,17.95,.44,3.35-1,10.63-1,10.63" fill="none" stroke="#444956" stroke-miterlimit="10" stroke-width=".5"/></g><g><path d="M281.96,222.8s7.7,15.8,3.04,28.26c-9.22,24.64-27.41,28.63-27.41,28.63,0,0,1.26-6.84,3.48-11.55s13.09-14.97,16.93-23.15c5.92-12.61,3.97-22.19,3.97-22.19h-.01Z" fill="#fbd116" stroke="#444956" stroke-miterlimit="10" stroke-width=".5"/><path d="M281.96,222.8s5.37,19.73-5.37,34.8c-6.53,9.15-19.01,22.09-19.01,22.09" fill="none" stroke="#444956" stroke-miterlimit="10" stroke-width=".5"/></g><g><path d="M249.28,246.73s-4.3,4.53-6.26,12.13c-1.96,7.6-2.33,31.12,0,42.4,0,0,9.5-9.97,9.8-21.44s-2.25-13.11-2.96-20.1-.58-12.99-.58-12.99h0Z" fill="#fbd116" stroke="#444956" stroke-miterlimit="10" stroke-width=".5"/><path d="M249.28,246.73c-1.64,4.45-1.9,11.17-2.15,17.75-.33,8.57,.8,12.76,.66,17.27s-1.36,11.34-4.77,19.51" fill="none" stroke="#444956" stroke-miterlimit="10" stroke-width=".5"/></g><g><path d="M279.6,268.94s-5.23,8.09-9.44,11.61-9.26,4.42-15.04,9.33-12.37,10.95-12.41,15.76c0,0,6.03-2.67,10.41-3.8,4.38-1.13,10.05-.82,15.99-5.68s7.85-6.93,10.49-27.22Z" fill="#fbd116" stroke="#444956" stroke-miterlimit="10" stroke-width=".5"/><path d="M279.6,268.94s-2.75,11.61-11.36,18.86c-5.65,4.75-22.3,13.76-25.52,17.83" fill="none" stroke="#444956" stroke-miterlimit="10" stroke-width=".5"/></g><g><path d="M204.41,330.98s6.07-4.4,10.32-12.42,4.01-13.01,9.6-21.76,18.37-17.12,18.37-17.12c0,0-3.72,6.65-4.65,9.04-.86,2.2-2.17,8.88-4.73,15.73-5.59,14.95-11.99,18.23-16.31,20.99s-12.6,5.53-12.6,5.53h0Z" fill="#fbd116" stroke="#444956" stroke-miterlimit="10" stroke-width=".5"/><path d="M242.71,279.68s-9.07,9.41-13.58,19.93c-3.24,7.55-3.76,8.27-7.52,13.96s-8.3,12.26-17.2,17.4" fill="none" stroke="#444956" stroke-miterlimit="10" stroke-width=".5"/></g><g><path d="M213.03,330.15s13-7.6,20.9-11.4,34.6-12.3,34.6-12.3c0,0-15.3,17.3-23.8,21.8s-31.7,1.9-31.7,1.9Z" fill="#fbd116" stroke="#444956" stroke-miterlimit="10" stroke-width=".5"/><path d="M268.53,306.45s-15.23,11.85-25.83,16.53c-9.88,4.37-29.68,7.17-29.68,7.17" fill="none" stroke="#444956" stroke-miterlimit="10" stroke-width=".5"/></g><g><path d="M216.95,303.3s-4.56,3.08-7.15,8.14-5.78,17.48-12.2,22.68-27.26,8.4-27.26,8.4c0,0,9-3.33,14.18-8.88s7.32-14.38,12.58-19.73c7.32-7.46,19.86-10.61,19.86-10.61h-.01Z" fill="#fbd116" stroke="#444956" stroke-miterlimit="10" stroke-width=".5"/><path d="M216.95,303.3s-10.63,5.31-16.16,16.03c-3.77,7.31-7.4,13.2-11.84,17.14s-18.62,6.04-18.62,6.04" fill="none" stroke="#444956" stroke-miterlimit="10" stroke-width=".5"/></g><g><path d="M184.07,341.7s7.55,8.85,19.12,8.73,30.21-9.79,30.21-9.79c0,0-17.35-.35-24.66,0s-24.66,1.06-24.66,1.06h0Z" fill="#fbd116" stroke="#444956" stroke-miterlimit="10" stroke-width=".5"/><path d="M233.4,340.64s-16.28,4.82-27.14,4.82c-15.34,0-22.18-3.76-22.18-3.76" fill="none" stroke="#444956" stroke-miterlimit="10" stroke-width=".5"/></g><g><path d="M263.26,205.02l-.28-2.28c-.22-.37-3.47-8.71-7.1-11.64l-.83,1.73c2.67,2.15,6.82,9.81,8.21,12.19Z" fill="#fbd116" stroke="#444956" stroke-miterlimit="10" stroke-width=".5"/><circle cx="253.68" cy="190.08" r="3.25" transform="translate(-6.88 370.62) rotate(-71.56)" fill="#fbd116" stroke="#444956" stroke-miterlimit="10" stroke-width=".5"/></g><g><path d="M255.12,278.3l1.45-2.27c.5-3.43,.23-17.94-2.11-21.87l-2.04,1.1c1,2.83,3.28,12.08,2.7,23.04h0Z" fill="#fbd116" stroke="#444956" stroke-miterlimit="10" stroke-width=".5"/><circle cx="253.05" cy="253.11" r="2.65" fill="#fbd116" stroke="#444956" stroke-miterlimit="10" stroke-width=".5"/></g><g><path d="M228.66,316.29l3.35-1.09c2.3-2.59,9.4-14.79,10.27-19.42l-2.31-.2c-.72,2.92-3.11,9.76-11.32,20.72h0Z" fill="#fbd116" stroke="#444956" stroke-miterlimit="10" stroke-width=".5"/><circle cx="241.41" cy="294.36" r="2.65" fill="#fbd116" stroke="#444956" stroke-miterlimit="10" stroke-width=".5"/></g><g><path d="M263.27,201.44l.91,1.09c1.21-2.27,3.66-8.68,4.52-15.38l-1.56-.69c-.44,3.4-2.57,12.54-3.87,14.98h0Z" fill="#fbd116" stroke="#444956" stroke-miterlimit="10" stroke-width=".5"/><circle cx="268.26" cy="185.61" r="2.65" fill="#fbd116" stroke="#444956" stroke-miterlimit="10" stroke-width=".5"/></g><g><path d="M265.6,231.27l.24,2.97c1.21-2.27,6.99-12.58,7.85-19.28l-1.56-.69c-.44,3.4-5.23,14.56-6.53,16.99h0Z" fill="#fbd116" stroke="#444956" stroke-miterlimit="10" stroke-width=".5"/><circle cx="273.25" cy="213.42" r="2.65" fill="#fbd116" stroke="#444956" stroke-miterlimit="10" stroke-width=".5"/></g><g><path d="M261.03,264.09l.24,2.97c1.21-2.27,6.57-11.13,11.55-17.26l-1.56-.69c-3.74,2.72-8.93,12.54-10.23,14.97h0Z" fill="#fbd116" stroke="#444956" stroke-miterlimit="10" stroke-width=".5"/><circle cx="272.94" cy="248.61" r="2.65" fill="#fbd116" stroke="#444956" stroke-miterlimit="10" stroke-width=".5"/></g><g><path d="M249.16,290.97l.24,2.97c3.84-4.82,9.7-8.54,16.68-12.24l-.72-2.02c-5.58,2.08-13.27,9.39-16.2,11.28h0Z" fill="#fbd116" stroke="#444956" stroke-miterlimit="10" stroke-width=".5"/><circle cx="267.47" cy="279.81" r="2.65" fill="#fbd116" stroke="#444956" stroke-miterlimit="10" stroke-width=".5"/></g><g><path d="M229.82,316.4l.24,2.97c3.84-4.82,14.47-7.07,20.41-7.83l-.72-2.02c-5.99,0-16.99,4.98-19.93,6.87h0Z" fill="#fbd116" stroke="#444956" stroke-miterlimit="10" stroke-width=".5"/><circle cx="252.14" cy="310.16" r="2.65" fill="#fbd116" stroke="#444956" stroke-miterlimit="10" stroke-width=".5"/></g><g><path d="M199.55,334.38l-.85,2.86c5.32-3.1,13.31-2.49,19.12-1.05l.06-2.14c-5.58-2.17-14.91-.38-18.33,.33h0Z" fill="#fbd116" stroke="#444956" stroke-miterlimit="10" stroke-width=".5"/><circle cx="219.05" cy="335.04" r="3.32" fill="#fbd116" stroke="#444956" stroke-miterlimit="10" stroke-width=".5"/></g><g><path d="M200.55,333.77l5.68-1.37c2.71-8.04,6.79-12.79,9.11-19.79l-2.72-.39c-2.83,6.8-7.43,15.94-12.07,21.56h0Z" fill="#fbd116" stroke="#444956" stroke-miterlimit="10" stroke-width=".5"/><circle cx="214.56" cy="310.16" r="3.32" fill="#fbd116" stroke="#444956" stroke-miterlimit="10" stroke-width=".5"/></g><path d="M261.7,196.58c2.58,14.27,2.51,30.78,1.62,45.25-.5,14.57-4.77,28.66-11.37,41.64-6.65,12.69-14.54,25.42-25.84,34.38-11.54,8.57-24.84,15.34-38.34,20.12-9.33,3.3-18.81,3.76-28.61,5.76-5.04,1.16-9.87,3.2-14.37,5.76-4.48,2.61-8.78,5.77-12.24,10.25l5.68,3.79c4-6.83,11.43-11.32,18.77-13.99,5.66-1.91,11.54-2.34,17.65-3.49,14.82-2.46,28.7-9.14,41.51-16.67,6.39-3.86,12.8-8.08,18.05-13.5,8.59-9.08,15.34-19.74,20.88-30.85,6.65-13.34,10.9-28.01,11.38-42.99,.84-14.86,.9-29.74-1.83-44.46l-2.94-.99h0Z" fill="#fbd116" stroke="#444956" stroke-miterlimit="10" stroke-width=".5"/><g><path d="M248.33,154.09s14.77,15.84,16.06,22.76,.8,26.38,.8,26.38c0,0-14.96-22.84-16.73-29.28s-.13-19.87-.13-19.87h0Z" fill="#fbd116" stroke="#444956" stroke-miterlimit="10" stroke-width=".5"/><path d="M248.33,154.09s7.8,17.49,10.1,23.97,6.76,25.17,6.76,25.17" fill="none" stroke="#444956" stroke-miterlimit="10" stroke-width=".5"/></g></g><g id="b"><g><path d="M229.04,278.05l-22.75-20.19s2.93-1.48,5.46,.12c3.33,2.11,4.17-4.32,.66-5.65-4.74-1.79-11.17,1.39-11.17,1.39l-89.79-86.71s-.83,9.94,2.31,12.3c5.36,4.04,82.26,79.3,82.26,79.3l-6.91,8.51s2.55,2.25,3.62,2.5c.81,.19,5.7-6.43,5.7-6.43,0,0-1.44,12.74,6.99,17.44,7.83,4.36,16.27,.45,16.27,.45,2.3,1.27,5.32,2.64,7.08,.49,1.76-2.15,.28-3.52,.28-3.52Zm-23-4.19c-5.97-4.56-4.6-10.81-4.6-10.81l13.23,13.07s-2.66,2.29-8.63-2.26Z" fill="#fff"/><path d="M224.54,169.5l-16.08,14.45-6.91-2.24-105.88,90.4s12.5,14.69,16.56,14.7c5.5,.02,17.62-19.46,18.24-24.03,.62-4.57-3.52-7.79-3.52-7.79l46.85-41.99,8.12-3.36,.16-4.14,15.47-14.01,2.66,.11-15.91,14.58,5,.61s26.29-23.41,31.15-27.66c4.86-4.24,4.09-9.64,4.09-9.64Zm-98.12,95.03c-2.5,4.55-10.7,13.46-13.63,13.76-2.23,.23-6.06-5.32-6.06-5.32l17.84-15.68s4.95,1.6,1.85,7.24Z" fill="#fff"/></g><g><path d="M161.94,308.74c-5.6-9.7-9-10.02-13.31-10.42-3.51-.33-7.47-.69-13.07-5.66l-2.94,1.71-.54-.7c-4.07-5.29-1.64-19.99-1.54-20.61l.3-1.8,18.66,16.84-2.7,.48c1.41,.71,2.82,1.1,4.02,1.1,1.13,0,2.05-.35,2.72-1.04,1.08-1.12,1.61-3.2,1.52-6.04,.02-6.69-.14-16.29-.33-27.4-.47-27.82-1.06-62.45,.93-73.83,1.32-7.88,3-13.27,5.32-20.72l1.85-5.96,1.32,4.2c2.44,7.77,4.74,15.11,5.97,23.23,1.81,10.41,1.26,45.09,.82,72.95-.18,11.23-.33,20.93-.31,27.49-.11,2.9,.39,5,1.46,6.1,.64,.67,1.53,1.01,2.63,1.01,1.32,0,2.76-.47,4.04-1.1l-2.67-.47,18.66-16.84,.3,1.8c.11,.62,2.53,15.32-1.54,20.61l-.54,.7-2.94-1.71c-5.59,4.97-9.56,5.34-13.07,5.66-4.3,.4-7.7,.71-13.31,10.42l-.87,1.5-.87-1.5Z" fill="#fff" fill-rule="evenodd"/><path d="M162.85,158.08c2.5,7.99,5.02,15.77,6.29,24.22,2.53,14.5,.42,77.43,.5,100.3-.23,6.14,2.17,8.1,5.09,8.1,2.32,0,4.95-1.24,6.83-2.62l-3.27-.58,15.79-14.25s2.51,14.83-1.34,19.83l-2.81-1.64c-12.8,11.84-16.63-1.33-27.11,16.81-10.48-18.15-14.31-4.98-27.11-16.81l-2.81,1.64c-3.85-5-1.34-19.83-1.34-19.83l15.79,14.25-3.27,.58c1.99,1.48,4.54,2.63,6.78,2.63,2.99,0,5.42-2.05,5.24-8.11,.08-23.44-2.16-85.26,.59-101.03,1.47-8.8,3.38-14.4,6.19-23.49m-.89,124.64h1.68v-28.19h-1.68v28.19m.87-131.37l-1.9,6.14c-.31,1-.61,1.96-.89,2.88-2.33,7.49-4.02,12.91-5.35,20.87-2,11.45-1.42,46.13-.95,73.99,.19,11.11,.35,20.7,.33,27.35v.03s0,.03,0,.03c.1,3.23-.62,4.67-1.24,5.31-.33,.34-.75,.56-1.26,.67l-2.91-2.62-15.79-14.25-2.7-2.44-.61,3.59c-.27,1.61-2.53,15.85,1.73,21.39l1.07,1.39,1.52-.89,1.56-.91c5.57,4.74,9.72,5.12,13.09,5.43,4.17,.39,7.19,.67,12.53,9.92l1.73,3,1.73-3c5.34-9.26,8.36-9.53,12.53-9.92,3.37-.31,7.52-.7,13.09-5.43l1.56,.91,1.52,.89,1.07-1.39c4.26-5.53,2-19.78,1.73-21.39l-.61-3.59-2.71,2.44-15.79,14.25-2.91,2.63c-.5-.1-.9-.31-1.22-.64-.6-.63-1.3-2.06-1.18-5.33v-.04s0-.04,0-.04c-.02-6.55,.13-16.24,.31-27.46,.44-27.91,.99-62.64-.84-73.17-1.23-8.15-3.54-15.53-6-23.34l-.35-1.13-1.92-6.13h0Z" fill="#444956"/></g><g><polygon points="149.82 279.69 154.72 275.96 154.72 255.37 149.82 259.09 149.82 279.69" fill="#fefefe" fill-rule="evenodd"/><polygon points="154.72 279.12 154.72 277.12 149.82 280.83 149.82 282.84 154.72 279.12" fill="#fefefe" fill-rule="evenodd"/><polygon points="149.82 283.98 149.82 286.57 154.72 282.85 154.72 280.27 149.82 283.98" fill="#fefefe" fill-rule="evenodd"/></g><g><polygon points="175.68 279.69 170.77 275.96 170.77 255.37 175.68 259.09 175.68 279.69" fill="#fefefe" fill-rule="evenodd"/><polygon points="170.77 279.12 170.77 277.12 175.68 280.83 175.68 282.84 170.77 279.12" fill="#fefefe" fill-rule="evenodd"/><polygon points="175.68 283.98 175.68 286.57 170.77 282.85 170.77 280.27 175.68 283.98" fill="#fefefe" fill-rule="evenodd"/></g><path d="M167.7,174.86c-1.68-6.52-3.29-12.12-4.84-16.79-2.56,8.06-3.89,12.66-4.86,16.79,3.23-2.14,6.46-2.14,9.71,0Z" fill="#ce1125" fill-rule="evenodd" stroke="#b6b6b7" stroke-miterlimit="10" stroke-width=".09"/><path d="M156.8,180.71c3.84-3.07,7.87-3.07,12.09,0,.1,.56,.18,1.09,.24,1.59-4.28-3.29-8.42-3.31-12.56-.12,.07-.56,.14-1.05,.22-1.46h0Z" fill="#ce1125" fill-rule="evenodd" stroke="#b6b6b7" stroke-miterlimit="10" stroke-width=".09"/><g><g><path d="M177.53,233.07s5.55,4.12,8.35,4.12,2.67-1.71,2.67-1.71l-5.51-3.05-5.51,.65h.01Z" fill="#fff" stroke="#444956" stroke-miterlimit="10" stroke-width=".5"/><path d="M179.68,232.25s3.83,1.07,5.8,2.26,4.06,2.92,5.49,2.59c2.55-.59,1.39-3.15,1.39-3.15l-10.7-3.88-2,2.18h.01Z" fill="#fff" stroke="#444956" stroke-miterlimit="10" stroke-width=".5"/><path d="M181.94,231.26s6.76,1.88,8.98,2.74c10.39,4.01,15.58-1.14,15.58-1.14l-18.96-4.6-4.57,1.57-1.02,1.43h-.01Z" fill="#fff" stroke="#444956" stroke-miterlimit="10" stroke-width=".5"/><path d="M186.46,228.99s4.38,1.21,6.55,1.9c3.33,1.05,13.02,3.54,15.52,2.97s3.75-3.5,3.75-3.5l-23.72-4.28-2.09,2.91h-.01Z" fill="#fff" stroke="#444956" stroke-miterlimit="10" stroke-width=".5"/><path d="M226.26,226.83s-.19,3.85-8.85,3.92c-8.67,.06-28.86-3.34-28.86-3.34l4.57-2.74,33.14,2.17h0Z" fill="#fff" stroke="#444956" stroke-miterlimit="10" stroke-width=".5"/><path d="M191.14,225.92s17.93,2.09,35.64,.88c4.02-.27,4.68-6.33,4.68-6.33,0,0-10.46,3.46-17.21,2.66s-23.9,0-23.9,0l.79,2.78Z" fill="#fff" stroke="#444956" stroke-miterlimit="10" stroke-width=".5"/><path d="M192.14,223.71s14.01,.15,22.4-.11,21.26-.96,19.05-7.68l-43.72,4.9,2.27,2.89h0Z" fill="#fff" stroke="#444956" stroke-miterlimit="10" stroke-width=".5"/><path d="M192.55,220.93s16.97-.98,25.93-1.95c8.96-.97,13.38-2.06,16.84-3.88,6.02-3.17,3.12-7.79,3.12-7.79l-40.23,9.1-5.64,4.52h-.01Z" fill="#fff" stroke="#444956" stroke-miterlimit="10" stroke-width=".5"/><path d="M237.15,197.66s-10.35,9.81-17.71,11.41c-7.36,1.6-21.81,4.29-21.81,4.29l1.03,2.96s12.13,.58,21.69-1.95c9.56-2.53,16.64-4.16,18.41-7.56,1.44-2.77-1.6-9.15-1.6-9.15h0Z" fill="#fff" stroke="#444956" stroke-miterlimit="10" stroke-width=".5"/><path d="M172.94,230.84s5.94-1.74,10.09-6c5.6-5.75,9.13-9.46,11.95-13.03,2.82-3.57,16.34-3.07,25.43-8.02,12.14-6.61,15.45-13.44,15.45-13.44,0,0,2.5,6.06,.75,8.94-7.12,11.71-32.04,12.56-34.95,14.36-2.91,1.8-7.93,8.58-10.52,12.28s-14.23,8.34-14.23,8.34l-1.5-2.39h0l-2.46-1.03Z" fill="#fff" stroke="#444956" stroke-miterlimit="10" stroke-width=".5"/></g><g><path d="M148.08,233.07s-5.55,4.12-8.35,4.12-2.67-1.71-2.67-1.71l5.51-3.05,5.51,.65h-.01Z" fill="#fff" stroke="#444956" stroke-miterlimit="10" stroke-width=".5"/><path d="M145.93,232.25s-3.83,1.07-5.8,2.26-4.06,2.92-5.49,2.59c-2.55-.59-1.39-3.15-1.39-3.15l10.7-3.88,2,2.18h-.01Z" fill="#fff" stroke="#444956" stroke-miterlimit="10" stroke-width=".5"/><path d="M143.67,231.26s-6.76,1.88-8.98,2.74c-10.39,4.01-15.58-1.14-15.58-1.14l18.96-4.6,4.57,1.57,1.02,1.43h.01Z" fill="#fff" stroke="#444956" stroke-miterlimit="10" stroke-width=".5"/><path d="M139.15,228.99s-4.38,1.21-6.55,1.9c-3.33,1.05-13.02,3.54-15.52,2.97s-3.75-3.5-3.75-3.5l23.72-4.28,2.09,2.91h.01Z" fill="#fff" stroke="#444956" stroke-miterlimit="10" stroke-width=".5"/><path d="M99.35,226.83s.19,3.85,8.85,3.92c8.67,.06,28.86-3.34,28.86-3.34l-4.57-2.74-33.14,2.17h0Z" fill="#fff" stroke="#444956" stroke-miterlimit="10" stroke-width=".5"/><path d="M134.47,225.92s-17.93,2.09-35.64,.88c-4.02-.27-4.68-6.33-4.68-6.33,0,0,10.46,3.46,17.21,2.66s23.9,0,23.9,0l-.79,2.78Z" fill="#fff" stroke="#444956" stroke-miterlimit="10" stroke-width=".5"/><path d="M133.47,223.71s-14.01,.15-22.4-.11-21.26-.96-19.05-7.68l43.72,4.9-2.27,2.89h0Z" fill="#fff" stroke="#444956" stroke-miterlimit="10" stroke-width=".5"/><path d="M133.06,220.93s-16.97-.98-25.93-1.95c-8.96-.97-13.38-2.06-16.84-3.88-6.02-3.17-3.12-7.79-3.12-7.79l40.23,9.1,5.64,4.52h.01Z" fill="#fff" stroke="#444956" stroke-miterlimit="10" stroke-width=".5"/><path d="M88.46,197.66s10.35,9.81,17.71,11.41c7.36,1.6,21.81,4.29,21.81,4.29l-1.03,2.96s-12.13,.58-21.69-1.95c-9.56-2.53-16.64-4.16-18.41-7.56-1.44-2.77,1.6-9.15,1.6-9.15h0Z" fill="#fff" stroke="#444956" stroke-miterlimit="10" stroke-width=".5"/><path d="M152.67,230.84s-5.94-1.74-10.09-6c-5.6-5.75-9.13-9.46-11.95-13.03-2.82-3.57-16.34-3.07-25.43-8.02-12.14-6.61-15.45-13.44-15.45-13.44,0,0-2.5,6.06-.75,8.94,7.12,11.71,32.04,12.56,34.95,14.36,2.91,1.8,7.93,8.58,10.52,12.28s14.23,8.34,14.23,8.34l1.5-2.39h0l2.46-1.03Z" fill="#fff" stroke="#444956" stroke-miterlimit="10" stroke-width=".5"/></g></g><g><polygon points="204.07 213.78 201.43 215.69 200.51 216.36 200.5 216.36 195.57 219.94 195.17 220.24 194.36 220.82 191.49 222.89 191.2 223.11 190.49 223.62 178.59 232.24 178.81 232.93 178.96 233.39 179.23 234.24 188.31 262.19 170.16 249.02 162.81 243.69 155.49 248.99 137.27 262.19 146.41 234.21 146.68 233.39 146.84 232.93 147.05 232.25 135.13 223.61 134.43 223.11 134.12 222.89 131.29 220.82 130.48 220.24 130 219.9 125.14 216.36 124.22 215.7 121.52 213.74 132.23 213.74 153.1 213.76 155.22 207.27 162.87 183.84 170.48 207.29 172.59 213.77 193.36 213.78 204.07 213.78" fill="#fbd116"/><path d="M130.56,216.73l64.39,.03-52.12,37.76,19.98-61.12,19.84,61.12-52.09-37.8h0Z" fill="#ce1125"/><polygon points="156.01 234.36 167.54 234.35 168.65 233.26 170.47 234.71 168.56 236.43 156.01 236.43 156.01 234.36" fill="#fbd116" stroke="#fbd116" stroke-miterlimit="10" stroke-width=".43"/><path d="M156.91,219.41h9.09l1.07-.87,1.84,1.37-1.37,1.37c-.23,2.15,.77,4.43,3.03,7.11l-2.91,1.97c-2.5-4.23-2.51-8.87-2.51-8.87h-8.23v-2.08h0Z" fill="#fbd116" stroke="#fbd116" stroke-miterlimit="10" stroke-width=".43"/><path d="M157.44,222.79c-.23,2.26-.1,3.81-2.07,7.21,3.11-1.5,4.73-4.59,4.97-7.21h-2.9Z" fill="#fbd116" stroke="#fbd116" stroke-miterlimit="10" stroke-width=".43"/></g></g><g><path d="M95.99,78.99c3.92,0,7.34-.04,10.23-.11,2.9-.08,5.45-.19,7.66-.35v4.23c-2.24-.15-4.84-.27-7.8-.34-2.96-.08-6.46-.12-10.51-.12-.06,.64-.14,1.34-.23,2.09-.09,.75-.18,1.57-.28,2.46,2.91,0,5.32-.02,7.22-.05,1.9-.03,3.46-.07,4.67-.12,1.21-.05,2.15-.1,2.83-.16,.67-.06,1.26-.14,1.75-.23-.06,.52-.12,1.03-.16,1.52-.05,.49-.08,1-.11,1.52-.03,.52-.05,1.09-.07,1.7-.02,.61-.02,1.3-.02,2.07v17.62c0,.98-.06,1.77-.18,2.37-.12,.6-.45,1.09-.99,1.47-.54,.38-1.33,.69-2.39,.92s-2.52,.45-4.39,.67c0-.71-.13-1.53-.39-2.48-.26-.95-.57-1.75-.94-2.39,2.02,.31,3.44,.31,4.25,.02s1.22-.87,1.22-1.72v-19.55h-26.27v25.53h-4.28c.18-1.53,.31-2.78,.37-3.75,.06-.97,.09-1.85,.09-2.65v-16.05c0-1.38-.03-2.66-.09-3.84-.06-1.18-.15-2.17-.28-2.97,.52,.06,1.13,.12,1.82,.18,.69,.06,1.58,.12,2.67,.16,1.09,.05,2.44,.09,4.05,.14,1.61,.05,3.6,.07,5.96,.07,.12-1.66,.21-3.17,.28-4.55-3.8,.03-7.11,.08-9.91,.16-2.81,.08-5.28,.18-7.43,.3v-4.23c2.18,.15,4.67,.26,7.47,.32,2.81,.06,6.11,.11,9.91,.14,0-1.72-.09-3.3-.28-4.74,.95,.15,1.92,.29,2.92,.41,1,.12,1.79,.15,2.37,.09,.43-.03,.66,.04,.69,.21,.03,.17-.15,.38-.55,.62-.15,.09-.29,.34-.41,.76-.12,.41-.28,1.3-.46,2.65Zm-.74,24.66c2.08,0,3.83-.03,5.22-.09,1.4-.06,2.69-.15,3.89-.28v3.59c-1.17-.09-2.45-.16-3.86-.21-1.41-.05-3.16-.08-5.24-.11,0,1.2,.02,2.44,.05,3.73,.03,1.29,.12,2.68,.28,4.19h-4.23c.15-1.5,.24-2.91,.28-4.21,.03-1.3,.05-2.54,.05-3.7-1.87,.03-3.46,.07-4.76,.11-1.3,.05-2.49,.12-3.56,.21v-3.59c1.13,.09,2.35,.17,3.63,.23,1.29,.06,2.85,.11,4.69,.14v-3.59c-1.63,.03-3.04,.08-4.25,.14-1.21,.06-2.29,.14-3.24,.23v-3.5c1.29,.09,2.89,.18,4.81,.25,1.92,.08,4.12,.12,6.6,.12,.52-1.38,.91-2.61,1.17-3.7,.26-1.09,.45-2.2,.58-3.33,.89,.49,1.69,.87,2.41,1.15,.72,.28,1.27,.45,1.63,.51,.34,.06,.53,.15,.57,.25,.05,.11-.13,.27-.53,.48-.12,.06-.25,.16-.39,.3-.14,.14-.31,.37-.51,.69-.2,.32-.44,.77-.74,1.33-.29,.57-.64,1.31-1.04,2.23,1.99-.03,3.71-.12,5.15-.28v3.5c-1.07-.12-2.3-.21-3.68-.25-1.38-.05-3.04-.08-4.97-.12v3.59Zm-6.67-7.18c-.28-.77-.6-1.52-.97-2.28-.37-.75-.75-1.43-1.15-2.05l3.68-1.2c.25,.58,.54,1.24,.9,1.98,.35,.74,.73,1.49,1.13,2.25l-3.59,1.29Z" fill="#fbd116"/><path d="M135.64,91.6c1.56,0,2.94-.02,4.14-.05,1.2-.03,2.28-.12,3.27-.28v3.91c-1.44-.15-3.14-.27-5.08-.34-1.95-.08-4.25-.12-6.92-.12s-4.88,.04-6.72,.12c-1.84,.08-3.47,.19-4.88,.34v-3.91c.4,.06,.87,.11,1.4,.14,.54,.03,1.1,.06,1.7,.09,.6,.03,1.2,.05,1.82,.07,.61,.02,1.2,.02,1.75,.02h6.58c.52-1.04,1.01-2.12,1.47-3.24,.46-1.12,.95-2.52,1.47-4.21,.25,.15,.54,.31,.87,.46,.34,.15,.69,.3,1.06,.44,.37,.14,.72,.27,1.06,.39,.34,.12,.63,.2,.87,.23,.25,.06,.36,.16,.35,.3-.02,.14-.19,.33-.53,.57-.15,.12-.51,.56-1.08,1.31-.57,.75-1.43,2-2.6,3.75Zm6.53-7.96c-1.38-.09-2.9-.17-4.55-.23-1.66-.06-3.71-.09-6.16-.09s-4.52,.02-6.21,.07c-1.69,.05-3.21,.13-4.55,.25v-3.77c1.35,.09,2.87,.17,4.55,.23,1.69,.06,3.76,.09,6.21,.09s4.52-.02,6.19-.07c1.67-.05,3.18-.13,4.53-.25v3.77Zm-15.5,31.46h-3.96c.15-1.04,.25-1.99,.3-2.85,.05-.86,.07-1.81,.07-2.85v-6.03c0-.4,0-.83-.02-1.31-.02-.48-.03-.94-.05-1.4-.02-.46-.05-.89-.09-1.29-.05-.4-.08-.72-.11-.97,.4,.06,.81,.11,1.24,.16,.43,.05,.97,.08,1.61,.09,.64,.02,1.43,.03,2.35,.05,.92,.02,2.07,.02,3.45,.02s2.54,0,3.5-.02c.95-.02,1.76-.03,2.44-.05,.67-.02,1.23-.05,1.68-.09,.44-.05,.84-.1,1.17-.16-.03,.18-.07,.48-.12,.87-.05,.4-.08,.84-.11,1.31-.03,.48-.05,.96-.07,1.45-.02,.49-.02,.94-.02,1.33v5.38c0,1.04,.02,2.02,.07,2.94,.05,.92,.15,1.85,.3,2.81h-3.96v-3.54h-9.66v4.14Zm-.32-23.92c-.06-.37-.15-.78-.25-1.24-.11-.46-.25-.94-.44-1.43-.18-.49-.39-.98-.62-1.47-.23-.49-.48-.94-.76-1.33l3.86-1.52c.09,.34,.22,.77,.39,1.29,.17,.52,.35,1.03,.55,1.54,.2,.51,.39,.98,.58,1.43,.18,.44,.34,.77,.46,.99l-3.77,1.75Zm9.98,10.58h-9.66v6.07h9.66v-6.07Zm-5.75-21.71c-.09-.49-.28-1.08-.58-1.77s-.76-1.62-1.4-2.78l4.65-1.56c.43,1.07,.81,1.96,1.13,2.65,.32,.69,.65,1.27,.99,1.73l-4.78,1.75Zm30.13,24.33c0,2.3-.77,4.05-2.3,5.24-1.53,1.2-3.65,1.87-6.35,2.02-.12-.77-.31-1.54-.58-2.32-.26-.78-.61-1.49-1.03-2.14,2.21,.25,3.83,.12,4.85-.37,1.03-.49,1.54-1.43,1.54-2.81,0-2.02-.55-3.91-1.66-5.66s-2.5-3.36-4.19-4.83l4.05-12.97h-6.53v25.44c0,1.1,0,2.11,.02,3.01,.02,.9,.04,1.77,.07,2.6,.03,.83,.07,1.64,.12,2.44,.05,.8,.12,1.61,.21,2.44h-4.51c.12-.89,.22-1.74,.3-2.55,.08-.81,.14-1.63,.18-2.46s.08-1.68,.09-2.55c.02-.87,.02-1.85,.02-2.92v-26.13c0-.55-.02-1-.05-1.36-.03-.35-.06-.64-.09-.87-.03-.23-.06-.42-.09-.58,1.07,.06,2.3,.12,3.68,.16s2.68,.07,3.91,.07,2.49-.02,3.89-.07c1.4-.05,2.63-.1,3.7-.16l-5.24,15.59c1.78,1.93,3.22,3.91,4.32,5.93s1.66,3.96,1.66,5.8Z" fill="#fbd116"/><path d="M169.78,112.11h-4c.15-1.01,.26-1.96,.32-2.85,.06-.89,.09-1.85,.09-2.9v-6.85c0-.4,0-.86-.02-1.38-.02-.52-.04-1.04-.07-1.56-.03-.52-.07-1.03-.12-1.52-.05-.49-.08-.9-.12-1.24,.55,.09,1.22,.16,2,.21s1.96,.08,3.52,.12v-12.24c0-1.66-.06-3.03-.18-4.12-.12-1.09-.26-2.03-.41-2.83,.89,.18,1.73,.31,2.53,.39,.8,.08,1.58,.07,2.35-.02,.77-.09,.83,.18,.18,.83-.25,.25-.45,.71-.6,1.38-.15,.67-.23,1.35-.23,2.02v2.94c1.04,0,1.96-.02,2.74-.05,.78-.03,1.5-.06,2.14-.09,.64-.03,1.23-.08,1.77-.14,.54-.06,1.08-.12,1.63-.18v4.19c-.52-.03-1.05-.07-1.59-.12-.54-.05-1.13-.08-1.77-.09-.64-.02-1.37-.04-2.16-.07-.8-.03-1.72-.05-2.76-.05v8.23h2.71c.74,0,1.36-.02,1.89-.05,.52-.03,.97-.07,1.36-.11,.38-.05,.76-.1,1.13-.16-.06,.34-.12,.74-.16,1.22-.05,.48-.08,.97-.09,1.47-.02,.51-.03,1.02-.05,1.54-.02,.52-.02,1.01-.02,1.47v5.15c0,1.04,.03,2.02,.09,2.92,.06,.91,.17,1.85,.32,2.83h-3.96v-2.16h-8.46v3.86Zm8.46-15.13h-8.46v8.42h8.46v-8.42Zm9.61-5.93c-1.13,.21-2.29,.46-3.45,.74-1.17,.28-2.15,.55-2.94,.83l-.74-3.86c.71-.06,1.66-.15,2.88-.28,1.21-.12,2.52-.29,3.93-.51-.09-1.01-.17-2.1-.23-3.27-.06-1.17-.13-2.37-.21-3.61-.08-1.24-.15-2.48-.21-3.73-.06-1.24-.11-2.45-.14-3.61,.71,.15,1.5,.26,2.39,.32,.89,.06,1.62,.06,2.21,0,.46-.06,.72-.02,.78,.14,.06,.15-.09,.46-.46,.92-.18,.25-.35,.64-.51,1.2-.15,.55-.26,1.31-.32,2.28-.06,.97-.08,2.17-.07,3.61,.02,1.44,.1,3.16,.25,5.15l7.82-1.33c1.01-.15,2.07-.38,3.17-.67,1.1-.29,2.01-.56,2.71-.81l.69,3.82c-.8,.06-1.78,.15-2.94,.28-1.17,.12-2.27,.26-3.31,.41l-7.87,1.38c.24,2.02,.62,4.06,1.13,6.1s1.06,3.78,1.68,5.22c.95-1.38,1.76-2.91,2.44-4.6,.67-1.69,1.21-3.59,1.61-5.7,.18,.15,.44,.32,.76,.51,.32,.18,.67,.36,1.04,.53,.37,.17,.73,.32,1.08,.46,.35,.14,.67,.24,.94,.3,.43,.09,.67,.19,.74,.3,.06,.11-.11,.28-.51,.53-.21,.15-.44,.48-.69,.97-.25,.49-.54,1.15-.87,1.98-1.11,2.79-2.67,5.49-4.69,8.1,1.32,1.96,2.38,3.42,3.2,4.37,.81,.95,1.46,1.45,1.93,1.5,.48,.05,.81-.35,1.01-1.17,.2-.83,.34-2.05,.44-3.68,.49,.89,1.04,1.56,1.63,2.02,.6,.46,1.34,.83,2.23,1.1-.25,.86-.5,1.67-.76,2.44-.26,.77-.54,1.44-.83,2.02-.29,.58-.61,1.04-.94,1.38s-.69,.51-1.06,.51c-.71,0-1.39-.11-2.05-.32-.66-.21-1.35-.61-2.07-1.17-.72-.57-1.5-1.35-2.32-2.35-.83-1-1.76-2.28-2.8-3.84-.71,.71-1.53,1.43-2.46,2.16-.94,.74-1.94,1.47-3.01,2.21-1.07,.74-2.19,1.44-3.36,2.12-1.17,.67-2.32,1.27-3.45,1.79-.37-.61-.84-1.17-1.43-1.68-.58-.51-1.32-.93-2.21-1.27,1.35-.37,2.68-.86,4-1.47,1.32-.61,2.58-1.29,3.79-2.02,1.21-.74,2.35-1.52,3.4-2.37,1.06-.84,2-1.71,2.83-2.6-.46-.95-.9-1.99-1.31-3.13-.41-1.13-.78-2.3-1.1-3.5-.32-1.2-.6-2.4-.83-3.61-.23-1.21-.42-2.38-.58-3.52Zm10.17-7.36c-.49-.98-1.06-1.99-1.7-3.04-.64-1.04-1.32-1.96-2.02-2.76l3.59-1.84c.71,1.01,1.38,1.96,2.02,2.85,.64,.89,1.32,1.78,2.02,2.67l-3.91,2.12Z" fill="#fbd116"/><path d="M249.17,113.91c-.55-.09-1.24-.17-2.07-.23-.83-.06-1.9-.11-3.22-.16-1.32-.05-2.94-.08-4.88-.09-1.93-.02-4.28-.02-7.04-.02s-5.09,0-6.99,.02c-1.9,.02-3.5,.05-4.81,.09-1.3,.05-2.35,.1-3.15,.16-.8,.06-1.47,.14-2.02,.23,.09-1.1,.15-2.33,.18-3.68,.03-1.35,.05-2.7,.05-4.05v-21.3c0-.67,0-1.37-.02-2.09-.02-.72-.03-1.43-.05-2.12s-.04-1.34-.07-1.96c-.03-.61-.06-1.13-.09-1.56,.55,.09,1.22,.17,2,.23,.78,.06,1.81,.11,3.08,.16,1.27,.05,2.85,.08,4.74,.09,1.89,.02,4.21,.02,6.97,.02s5.09,0,6.99-.02c1.9-.02,3.48-.05,4.74-.09,1.26-.05,2.28-.1,3.06-.16,.78-.06,1.45-.14,2-.23v4.37c-.43-.06-1.02-.12-1.77-.18-.75-.06-1.75-.12-2.99-.16s-2.75-.08-4.53-.11c-1.78-.03-3.91-.05-6.39-.05h-13.8v28.84h14.9c4.45,0,7.88-.05,10.3-.14,2.42-.09,4.05-.21,4.88-.37v4.55Zm-14.54-21.57c.64-.83,1.26-1.69,1.86-2.58,.6-.89,1.14-1.75,1.63-2.58,.49-.83,.91-1.61,1.26-2.35,.35-.74,.59-1.38,.71-1.93,.71,.43,1.38,.79,2.02,1.08,.64,.29,1.33,.57,2.07,.85,1.23,.46,1.23,.94,0,1.43-.15,.06-.34,.18-.55,.37-.21,.18-.56,.56-1.04,1.13-.48,.57-1.13,1.39-1.96,2.46-.83,1.07-1.95,2.55-3.36,4.42,1.56,1.35,3.16,2.75,4.78,4.21,1.62,1.46,3.17,2.88,4.65,4.25l-3.63,3.22c-.46-.64-.92-1.26-1.38-1.84-.46-.58-.99-1.2-1.59-1.84-.6-.64-1.31-1.36-2.14-2.16-.83-.8-1.84-1.76-3.04-2.9-.71,.83-1.49,1.7-2.35,2.62s-1.73,1.82-2.62,2.69-1.76,1.71-2.62,2.51c-.86,.8-1.63,1.49-2.3,2.07-.4-.43-.94-.85-1.61-1.27s-1.36-.76-2.07-1.03c1.04-.71,2.01-1.4,2.9-2.09s1.76-1.43,2.62-2.21c.86-.78,1.73-1.63,2.6-2.55,.87-.92,1.82-1.96,2.83-3.13-1.87-1.72-3.63-3.25-5.27-4.6-1.64-1.35-3.12-2.47-4.44-3.36l2.67-2.53c.64,.52,1.29,1.03,1.93,1.52,.64,.49,1.33,1.04,2.07,1.63,.74,.6,1.53,1.26,2.39,1.98,.86,.72,1.84,1.56,2.94,2.51Z" fill="#fbd116"/></g></svg>